<svg width="20" height="20" viewBox="0 0 20 20" fill="none" xmlns="http://www.w3.org/2000/svg">
<path d="M11.3643 2.42422C10.8744 2.32422 10.3694 2.27372 9.8492 2.27271C5.6651 2.27271 2.27344 5.66437 2.27344 9.84846C2.27344 14.0326 5.6651 17.4242 9.8492 17.4242C14.0333 17.4242 17.425 14.0326 17.425 9.84846C17.4239 9.32826 17.3734 8.82321 17.2734 8.33331" fill="#1B1B1B"/>
<path d="M11.3643 2.42422C10.8744 2.32422 10.3694 2.27372 9.8492 2.27271C5.6651 2.27271 2.27344 5.66437 2.27344 9.84846C2.27344 14.0326 5.6651 17.4242 9.8492 17.4242C14.0333 17.4242 17.425 14.0326 17.425 9.84846C17.4239 9.32826 17.3734 8.82321 17.2734 8.33331" stroke="#383838" stroke-width="1.2" stroke-linecap="round"/>
<path d="M13.6363 9.84855C13.6363 10.5977 13.4142 11.3301 12.9979 11.953C12.5817 12.5759 11.9901 13.0614 11.298 13.3481C10.6058 13.6348 9.84423 13.7098 9.10945 13.5636C8.37467 13.4175 7.69974 13.0567 7.16999 12.527C6.64025 11.9972 6.27949 11.3223 6.13333 10.5875C5.98718 9.85275 6.06219 9.09113 6.34888 8.39899C6.63558 7.70685 7.12108 7.11526 7.74399 6.69904C8.36691 6.28282 9.09926 6.06067 9.84843 6.06067" fill="#1B1B1B"/>
<path d="M13.6363 9.84855C13.6363 10.5977 13.4142 11.3301 12.9979 11.953C12.5817 12.5759 11.9901 13.0614 11.298 13.3481C10.6058 13.6348 9.84423 13.7098 9.10945 13.5636C8.37467 13.4175 7.69974 13.0567 7.16999 12.527C6.64025 11.9972 6.27949 11.3223 6.13333 10.5875C5.98718 9.85275 6.06219 9.09113 6.34888 8.39899C6.63558 7.70685 7.12108 7.11526 7.74399 6.69904C8.36691 6.28282 9.09926 6.06067 9.84843 6.06067" stroke="#383838" stroke-width="1.2" stroke-linecap="round"/>
<path d="M9.87109 9.82074L13.3203 6.3715L9.87109 9.82074ZM15.712 4.04953L15.2931 2.54347C15.2763 2.4861 15.2457 2.43373 15.2039 2.39102C15.1621 2.3483 15.1104 2.31655 15.0534 2.29858C14.9964 2.2806 14.9358 2.27695 14.8771 2.28795C14.8183 2.29895 14.7632 2.32427 14.7165 2.36165C13.6287 3.25029 12.4438 4.44802 13.4112 6.33665C15.3612 7.24574 16.4749 6.01999 17.3279 4.98892C17.3665 4.94144 17.3926 4.88508 17.404 4.82495C17.4153 4.76482 17.4115 4.70281 17.3928 4.64453C17.3742 4.58625 17.3413 4.53354 17.2972 4.49116C17.253 4.44878 17.199 4.41807 17.14 4.4018L15.712 4.04953Z" fill="#1B1B1B"/>
<path d="M9.87109 9.82074L13.3203 6.3715M15.712 4.04953L15.2931 2.54347C15.2763 2.4861 15.2457 2.43373 15.2039 2.39102C15.1621 2.3483 15.1104 2.31655 15.0534 2.29858C14.9964 2.2806 14.9358 2.27695 14.8771 2.28795C14.8183 2.29895 14.7632 2.32427 14.7165 2.36165C13.6287 3.25029 12.4438 4.44802 13.4112 6.33665C15.3612 7.24574 16.4749 6.01999 17.3279 4.98893C17.3665 4.94144 17.3926 4.88508 17.404 4.82495C17.4153 4.76482 17.4115 4.70281 17.3928 4.64453C17.3742 4.58625 17.3413 4.53354 17.2972 4.49116C17.253 4.44878 17.199 4.41807 17.14 4.4018L15.712 4.04953Z" stroke="#383838" stroke-width="1.2" stroke-linecap="round" stroke-linejoin="round"/>
</svg>
