<svg width="17" height="18" viewBox="0 0 17 18" fill="none" xmlns="http://www.w3.org/2000/svg">
<path d="M14.6621 4.15797C14.9482 4.32118 15.1858 4.55752 15.3505 4.84276C15.5153 5.128 15.6012 5.45191 15.5996 5.7813V11.8513C15.5996 12.5255 15.2304 13.1471 14.6346 13.4746L9.00961 17.033C8.73071 17.186 8.41773 17.2662 8.09961 17.2662C7.78149 17.2662 7.4685 17.186 7.18961 17.033L1.56461 13.4746C1.27337 13.315 1.03025 13.0802 0.860531 12.7947C0.690817 12.5092 0.600717 12.1834 0.599609 11.8513V5.78047C0.599609 5.1063 0.968776 4.48547 1.56461 4.15797L7.18961 0.8413C7.47672 0.682997 7.79925 0.599976 8.12711 0.599976C8.45497 0.599976 8.7775 0.682997 9.06461 0.8413L14.6896 4.15797H14.6621Z" fill="#383838" stroke="#383838" stroke-width="1.2" stroke-linecap="round" stroke-linejoin="round"/>
<path d="M5.59961 8.93298C5.59961 9.59602 5.863 10.2319 6.33184 10.7008C6.80068 11.1696 7.43657 11.433 8.09961 11.433C8.76265 11.433 9.39854 11.1696 9.86738 10.7008C10.3362 10.2319 10.5996 9.59602 10.5996 8.93298C10.5996 8.26994 10.3362 7.63406 9.86738 7.16522C9.39854 6.69638 8.76265 6.43298 8.09961 6.43298C7.43657 6.43298 6.80068 6.69638 6.33184 7.16522C5.863 7.63406 5.59961 8.26994 5.59961 8.93298Z" fill="#1B1B1B" stroke="#383838" stroke-width="1.2" stroke-linecap="round" stroke-linejoin="round"/>
</svg>
