<svg width="20" height="20" viewBox="0 0 20 20" fill="none" xmlns="http://www.w3.org/2000/svg">
<path fill-rule="evenodd" clip-rule="evenodd" d="M10.5885 11.0775L13.4044 13.8933C13.7681 14.257 14.0159 14.7205 14.1162 15.225C14.2166 15.7296 14.1651 16.2525 13.9682 16.7278C13.7714 17.2031 13.438 17.6093 13.0102 17.895C12.5825 18.1808 12.0796 18.3333 11.5652 18.3333H11.3977C10.9061 18.3344 10.4233 18.2038 9.99935 17.955C9.57543 18.2038 9.09256 18.3344 8.60102 18.3333H8.43435C7.91985 18.3335 7.41686 18.1811 6.98899 17.8954C6.56112 17.6097 6.2276 17.2035 6.03063 16.7282C5.83366 16.2529 5.78208 15.7298 5.88243 15.2252C5.98277 14.7206 6.23053 14.2571 6.59435 13.8933L9.41018 11.0766C9.56646 10.9204 9.77838 10.8326 9.99935 10.8326C10.2203 10.8326 10.4322 10.9204 10.5885 11.0766V11.0775ZM15.7327 5.8333C16.397 5.83309 17.0362 6.08718 17.5191 6.5434C18.0019 6.99963 18.2919 7.62338 18.3294 8.28663L18.3335 8.43413V8.60163C18.3346 9.09318 18.204 9.57605 17.9552 9.99997C18.1652 10.3575 18.2969 10.7675 18.3269 11.2083L18.3335 11.3983V11.565C18.3338 12.0649 18.19 12.5544 17.9193 12.9747C17.6486 13.395 17.2625 13.7284 16.8072 13.935C16.3519 14.1415 15.8467 14.2125 15.3521 14.1393C14.8575 14.0661 14.3945 13.852 14.0185 13.5225L13.8935 13.405L11.0769 10.5891C10.9335 10.4455 10.8475 10.2546 10.8349 10.052C10.8223 9.84952 10.884 9.64937 11.0085 9.48913L11.0777 9.4108L13.8935 6.59497C14.3811 6.10735 15.0432 5.83338 15.7327 5.8333ZM4.26602 5.8333C4.89935 5.8333 5.50768 6.0633 5.98018 6.47747L6.10518 6.59497L8.92185 9.4108C9.06521 9.5544 9.15125 9.74537 9.16383 9.94789C9.17641 10.1504 9.11467 10.3506 8.99018 10.5108L8.92102 10.5891L6.10518 13.405C5.75019 13.7595 5.30026 14.0038 4.80959 14.1085C4.31893 14.2132 3.80846 14.1738 3.33968 13.995C2.8709 13.8162 2.46382 13.5057 2.16746 13.1009C1.8711 12.6961 1.69812 12.2142 1.66935 11.7133L1.66602 11.5658V11.3983C1.66602 10.8858 1.80518 10.4083 2.04435 9.99997C1.82831 9.63152 1.70105 9.21781 1.67268 8.79163L1.66602 8.60247V8.4358C1.66569 8.09408 1.73272 7.75565 1.86329 7.43986C1.99386 7.12407 2.1854 6.83712 2.42695 6.59541C2.6685 6.3537 2.95533 6.16198 3.27104 6.03121C3.58675 5.90044 3.9243 5.83319 4.26602 5.8333ZM8.60018 1.66663C9.09173 1.66551 9.5746 1.79615 9.99852 2.04497C10.367 1.82892 10.7807 1.70167 11.2069 1.6733L11.3969 1.66663H11.5635C12.0635 1.66635 12.5529 1.81017 12.9732 2.08087C13.3936 2.35158 13.727 2.73769 13.9335 3.19299C14.1401 3.64829 14.211 4.15347 14.1378 4.64805C14.0647 5.14262 13.8505 5.60563 13.521 5.98163L13.4035 6.10663L10.5877 8.9233C10.4441 9.06666 10.2531 9.1527 10.0506 9.16528C9.84807 9.17786 9.64792 9.11612 9.48768 8.99163L9.40935 8.92247L6.59352 6.10663C6.23863 5.75178 5.99398 5.30183 5.88909 4.81105C5.78419 4.32027 5.82353 3.80962 6.00236 3.3407C6.18119 2.87178 6.49187 2.46461 6.89693 2.16831C7.30199 1.872 7.78412 1.69922 8.28518 1.6708L8.43352 1.66663H8.60018Z" fill="#383838"/>
</svg>
