<svg width="15" height="16" viewBox="0 0 15 16" fill="none" xmlns="http://www.w3.org/2000/svg">
<path d="M8.70833 0.441279C8.37019 0.156298 7.94221 0 7.5 0C7.05779 0 6.62981 0.156298 6.29167 0.441279L0.666667 5.18711C0.457883 5.36307 0.290049 5.58251 0.174898 5.83009C0.0597466 6.07766 5.64406e-05 6.3474 0 6.62045V14.3746C0 15.1796 0.653333 15.8329 1.45833 15.8329H3.95833C4.34511 15.8329 4.71604 15.6793 4.98953 15.4058C5.26302 15.1323 5.41667 14.7614 5.41667 14.3746V11.0388C5.41667 10.4721 5.86833 10.0121 6.43083 9.99711H8.56917C8.84064 10.0043 9.09858 10.1172 9.28802 10.3118C9.47746 10.5063 9.58343 10.7672 9.58333 11.0388V14.3746C9.58333 15.1796 10.2367 15.8329 11.0417 15.8329H13.5417C13.9284 15.8329 14.2994 15.6793 14.5729 15.4058C14.8464 15.1323 15 14.7614 15 14.3746V6.61961C14.9999 6.34657 14.9403 6.07683 14.8251 5.82926C14.71 5.58168 14.5421 5.36224 14.3333 5.18628L8.70833 0.441279Z" fill="white"/>
</svg>
