<svg xmlns="http://www.w3.org/2000/svg" viewBox="0 0 240 240">
  <defs>
    <radialGradient id="plate" cx="50%" cy="48%" r="54%">
      <stop offset="0" stop-color="#f7f1df"/>
      <stop offset="0.58" stop-color="#d7c8aa"/>
      <stop offset="1" stop-color="#3b332b"/>
    </radialGradient>
    <filter id="grain">
      <feTurbulence type="fractalNoise" baseFrequency="0.9" numOctaves="3" seed="26"/>
      <feColorMatrix type="saturate" values="0.35"/>
      <feBlend mode="multiply" in2="SourceGraphic"/>
    </filter>
  </defs>
  <rect width="240" height="240" fill="#2a221b"/>
  <circle cx="120" cy="120" r="105" fill="url(#plate)"/>
  <g filter="url(#grain)">
    <ellipse cx="87" cy="91" rx="46" ry="30" fill="#ead8b0" transform="rotate(-17 87 91)"/>
    <ellipse cx="145" cy="145" rx="52" ry="33" fill="#f4ead0" transform="rotate(14 145 145)"/>
    <path d="M58 144c36-30 75-31 112-6 10 7 11 20 1 28-34 26-78 25-113-2-7-6-7-14 0-20z" fill="#8d4f30"/>
    <path d="M76 140c27-11 56-11 84 0" stroke="#f1c36b" stroke-width="8" stroke-linecap="round" opacity=".75"/>
    <circle cx="104" cy="112" r="11" fill="#40582c"/>
    <circle cx="132" cy="118" r="9" fill="#293f22"/>
  </g>
</svg>
