<svg xmlns="http://www.w3.org/2000/svg" viewBox="0 0 240 240">
  <defs>
    <radialGradient id="bg" cx="48%" cy="42%" r="62%">
      <stop offset="0" stop-color="#f4dfbd"/>
      <stop offset="0.55" stop-color="#9e5a34"/>
      <stop offset="1" stop-color="#211510"/>
    </radialGradient>
    <filter id="grain">
      <feTurbulence type="fractalNoise" baseFrequency="0.8" numOctaves="3" seed="27"/>
      <feColorMatrix type="saturate" values="0.45"/>
      <feBlend mode="multiply" in2="SourceGraphic"/>
    </filter>
  </defs>
  <rect width="240" height="240" fill="url(#bg)"/>
  <g filter="url(#grain)">
    <ellipse cx="114" cy="122" rx="92" ry="70" fill="#ded3ba"/>
    <path d="M52 119c28-37 78-56 132-29 22 11 22 45-1 60-42 28-102 18-132-10-7-7-6-15 1-21z" fill="#6f3524"/>
    <path d="M71 104c34-17 75-20 118 0" stroke="#d98b44" stroke-width="13" stroke-linecap="round"/>
    <path d="M83 134c25 12 59 13 95 0" stroke="#f2d388" stroke-width="10" stroke-linecap="round" opacity=".75"/>
    <rect x="50" y="42" width="48" height="120" rx="12" fill="#f2efe8" opacity=".8" transform="rotate(-16 74 102)"/>
    <circle cx="163" cy="74" r="18" fill="#c23b2a"/>
  </g>
</svg>
