<svg xmlns="http://www.w3.org/2000/svg" viewBox="0 0 240 240">
  <defs>
    <radialGradient id="plate" cx="50%" cy="50%" r="58%">
      <stop offset="0" stop-color="#f0d0a7"/>
      <stop offset="0.56" stop-color="#915c36"/>
      <stop offset="1" stop-color="#191411"/>
    </radialGradient>
    <filter id="grain">
      <feTurbulence type="fractalNoise" baseFrequency="0.72" numOctaves="3" seed="28"/>
      <feColorMatrix type="saturate" values="0.5"/>
      <feBlend mode="multiply" in2="SourceGraphic"/>
    </filter>
  </defs>
  <rect width="240" height="240" fill="#211816"/>
  <circle cx="120" cy="120" r="104" fill="url(#plate)"/>
  <g filter="url(#grain)">
    <path d="M48 120c29-39 96-58 144-23 18 13 12 40-8 51-43 25-102 16-136-9-8-6-8-13 0-19z" fill="#b45c33"/>
    <path d="M63 101c26 6 44 22 56 45" stroke="#ffd37a" stroke-width="14" stroke-linecap="round"/>
    <path d="M121 90c20 12 33 28 40 52" stroke="#f5a34c" stroke-width="14" stroke-linecap="round"/>
    <path d="M155 105c14 8 25 19 33 33" stroke="#8b291c" stroke-width="12" stroke-linecap="round"/>
    <circle cx="86" cy="92" r="9" fill="#274725"/>
    <circle cx="173" cy="132" r="8" fill="#31592b"/>
  </g>
</svg>
