<svg width="64" height="63" viewBox="0 0 64 63" fill="none" xmlns="http://www.w3.org/2000/svg">
<path d="M4.85969 7.39647C2.2085 3.07219 7.62432 -1.65077 11.5477 1.56396L30.0301 16.7071C31.8812 18.2239 34.5002 18.3696 36.5081 17.0674L56.0069 4.42059C60.3733 1.58861 65.2628 7.19533 61.8632 11.1359L46.6815 28.7331C45.1183 30.5451 44.9066 33.1597 46.1572 35.2L58.6455 55.5704C61.2968 59.8947 55.8809 64.6177 51.9575 61.4029L33.4759 46.2591C31.6247 44.7424 29.0049 44.5972 26.9971 45.8994L7.49831 58.5463C3.13207 61.3779 -1.75724 55.7714 1.64206 51.831L16.8237 34.2338C18.3871 32.4217 18.5997 29.8066 17.3487 27.7663L4.85969 7.39647Z" stroke="white" stroke-opacity="0.14"/>
</svg>
