<svg width="307" height="298" viewBox="0 0 307 298" fill="none" xmlns="http://www.w3.org/2000/svg">
<path d="M109.256 4.73522C108.371 0.530473 114.378 -1.26163 115.942 2.74073L154.147 100.548C155.531 104.091 160.414 104.425 162.268 101.104L214.283 7.9054C216.384 4.14206 222.106 6.76313 220.628 10.8115L184.572 109.553C183.236 113.21 186.86 116.723 190.474 115.273L290.115 75.3089C294.13 73.6985 296.922 79.3733 293.196 81.5713L201.205 135.838C197.826 137.831 198.438 142.893 202.195 144.024L303.634 174.551C307.77 175.796 306.423 181.963 302.144 181.369L195.824 166.609C192.014 166.08 189.341 170.265 191.421 173.5L248.077 261.595C250.403 265.212 245.419 269.026 242.536 265.834L171.61 187.329C169.072 184.519 164.409 185.91 163.825 189.651L147.505 294.186C146.842 298.435 140.583 297.975 140.548 293.675L139.676 188.938C139.644 185.091 135.113 183.056 132.216 185.586L51.3627 256.186C48.1089 259.027 43.6025 254.607 46.3807 251.299L114.512 170.183C117.035 167.179 114.774 162.609 110.855 162.793L4.16747 167.799C-0.153529 168.002 -0.927258 161.725 3.31367 160.872L108.566 139.71C112.382 138.942 113.49 134.018 110.369 131.69L26.1051 68.8447C22.6503 66.268 26.0004 60.9403 29.8194 62.9376L124.396 112.403C127.767 114.165 131.669 111.21 130.886 107.488L109.256 4.73522Z" stroke="white" stroke-opacity="0.14"/>
</svg>
