<svg width="273" height="285" viewBox="0 0 273 285" fill="none" xmlns="http://www.w3.org/2000/svg">
<path d="M93.7553 4.76931C92.8196 0.531859 98.9064 -1.28402 100.445 2.77343L135.04 93.9933C136.445 97.6973 141.605 97.9104 143.31 94.3347L184.131 8.71424C185.989 4.81696 191.878 7.08357 190.644 11.2216L162.689 104.961C161.605 108.595 165.227 111.857 168.729 110.402L255.407 74.3756C259.363 72.7318 262.242 78.2713 258.623 80.5641L178.439 131.367C175.289 133.362 175.793 138.103 179.292 139.391L269.878 172.736C273.912 174.221 272.235 180.264 268.013 179.459L175.795 161.869C171.979 161.141 169.096 165.266 171.09 168.6L221.491 252.864C223.716 256.583 218.529 260.231 215.781 256.88L154.733 182.435C152.202 179.35 147.206 180.841 146.78 184.808L136.499 280.532C136.036 284.841 129.699 284.632 129.521 280.302L125.515 182.196C125.357 178.315 120.685 176.444 117.892 179.144L50.3863 244.385C47.2954 247.372 42.5819 243.235 45.1427 239.783L102.651 162.256C104.872 159.262 102.697 155.019 98.9685 155.076L4.05528 156.511C-0.228253 156.576 -0.854505 150.364 3.35574 149.572L95.6047 132.217C99.3313 131.516 100.573 126.803 97.6754 124.356L22.9297 61.2567C19.6301 58.4712 23.315 53.3479 27.0052 55.5904L108.065 104.85C111.45 106.907 115.65 103.901 114.796 100.033L93.7553 4.76931Z" stroke="white" stroke-opacity="0.14"/>
</svg>
